<?xml version="1.0" standalone="no"?>
<!DOCTYPE svg PUBLIC "-//W3C//DTD SVG 20010904//EN"
 "http://www.w3.org/TR/2001/REC-SVG-20010904/DTD/svg10.dtd">
<svg version="1.0" xmlns="http://www.w3.org/2000/svg"
 width="276.000000pt" height="276.000000pt" viewBox="0 0 276.000000 276.000000"
 preserveAspectRatio="xMidYMid meet">
<metadata>
Created by potrace 1.11, written by Peter Selinger 2001-2013
</metadata>
<g transform="translate(0.000000,276.000000) scale(0.100000,-0.100000)"
fill="#000000" stroke="none">
<path d="M306 2228 c8 -14 62 -70 296 -309 79 -80 192 -197 252 -260 60 -63
193 -200 295 -305 293 -302 660 -681 752 -777 72 -76 90 -89 121 -92 47 -4 88
32 88 78 0 25 -15 45 -82 110 -46 43 -112 104 -148 136 -35 31 -80 72 -100 91
-19 19 -73 69 -120 110 -46 41 -98 89 -115 105 -26 25 -81 76 -236 216 -91 83
-217 198 -240 219 -59 55 -213 196 -233 213 -29 25 -315 288 -350 322 -42 41
-176 155 -182 155 -3 0 -2 -6 2 -12z"/>
<path d="M820 2093 c0 -5 35 -45 78 -89 42 -45 121 -128 174 -185 53 -57 141
-149 195 -205 54 -55 124 -130 157 -165 32 -35 115 -123 185 -195 69 -72 181
-189 248 -260 256 -272 265 -281 303 -278 45 3 83 45 77 83 -6 37 -22 61 -63
93 -19 14 -63 52 -98 85 -35 32 -79 72 -97 88 -105 92 -226 201 -239 214 -8 9
-49 45 -90 81 -41 36 -86 76 -100 90 -15 14 -52 47 -83 74 -31 27 -77 68 -101
90 -24 23 -68 62 -97 88 -30 25 -73 64 -95 85 -23 21 -72 65 -108 98 -37 33
-82 73 -99 89 -18 15 -52 44 -76 65 -24 20 -50 42 -57 49 -8 7 -14 10 -14 5z"/>
<path d="M1318 1914 c-3 -3 19 -32 50 -64 32 -32 94 -99 139 -147 44 -48 125
-133 180 -189 54 -55 129 -134 167 -175 156 -168 324 -337 345 -348 28 -15 65
5 74 41 7 24 -9 42 -173 188 -46 41 -100 90 -119 109 -38 35 -152 137 -187
168 -43 37 -168 149 -197 177 -17 16 -69 63 -116 105 -47 41 -93 82 -101 91
-31 32 -57 50 -62 44z"/>
<path d="M1767 1715 c12 -16 65 -75 118 -130 54 -55 134 -139 178 -187 82 -89
117 -108 131 -72 7 17 -29 55 -158 167 -32 29 -84 76 -115 105 -31 29 -83 74
-116 100 -52 40 -57 43 -38 17z"/>
<path d="M460 1715 c0 -3 8 -13 18 -23 9 -11 69 -74 132 -142 63 -68 146 -155
184 -194 37 -39 120 -127 185 -195 64 -68 148 -156 186 -196 39 -40 120 -126
182 -191 61 -66 146 -155 190 -200 43 -44 106 -111 141 -147 54 -58 68 -67 98
-67 68 0 109 79 66 126 -10 10 -56 53 -102 94 -46 41 -117 106 -159 145 -42
38 -85 76 -95 85 -11 8 -29 24 -41 35 -11 11 -59 54 -106 95 -46 41 -91 82
-99 90 -8 8 -35 33 -60 54 -25 22 -83 74 -130 116 -96 86 -188 169 -240 215
-19 16 -64 57 -100 90 -234 212 -250 225 -250 210z"/>
<path d="M630 1264 c0 -6 16 -28 36 -50 61 -66 258 -275 335 -355 41 -42 101
-105 133 -140 173 -187 347 -359 364 -359 22 0 47 19 55 41 5 16 -20 79 -33
79 -4 0 -16 8 -27 17 -33 30 -183 164 -248 224 -34 31 -72 65 -85 75 -13 10
-36 30 -50 44 -46 43 -122 112 -200 181 -41 37 -87 77 -101 90 -14 13 -52 47
-83 74 -32 28 -66 59 -77 69 -10 11 -19 15 -19 10z"/>
<path d="M819 853 c10 -18 21 -30 244 -266 110 -116 135 -137 156 -135 34 4
30 34 -9 68 -15 14 -62 57 -105 95 -43 39 -87 78 -99 88 -21 18 -115 102 -162
145 -30 27 -38 28 -25 5z"/>
</g>
</svg>
